<svg xmlns="http://www.w3.org/2000/svg" viewBox="0 0 512 600" width="512" height="600">
  <defs>
    <radialGradient id="bg" cx="50%" cy="40%" r="65%">
      <stop offset="0%" stop-color="#F7F4EF"/>
      <stop offset="100%" stop-color="#F0EBE3"/>
    </radialGradient>
    <linearGradient id="moonGold" x1="0%" y1="0%" x2="100%" y2="100%">
      <stop offset="0%" stop-color="#8B7355"/>
      <stop offset="50%" stop-color="#9B8365"/>
      <stop offset="100%" stop-color="#8B6B6B"/>
    </linearGradient>
    <radialGradient id="roseMist" cx="50%" cy="45%" r="45%">
      <stop offset="0%" stop-color="#C4939A" stop-opacity="0.08"/>
      <stop offset="100%" stop-color="transparent"/>
    </radialGradient>
    <linearGradient id="petalGrad" x1="0%" y1="0%" x2="100%" y2="100%">
      <stop offset="0%" stop-color="#8B7355" stop-opacity="0.15"/>
      <stop offset="50%" stop-color="#8B6B6B" stop-opacity="0.1"/>
      <stop offset="100%" stop-color="#7B6E8C" stop-opacity="0.06"/>
    </linearGradient>
    <radialGradient id="eyeGem" cx="50%" cy="45%" r="50%">
      <stop offset="0%" stop-color="#A08B6A"/>
      <stop offset="50%" stop-color="#8B7355"/>
      <stop offset="100%" stop-color="#8B6B6B"/>
    </radialGradient>
    <radialGradient id="softStar" cx="50%" cy="50%" r="50%">
      <stop offset="0%" stop-color="#2D2424" stop-opacity="0.5"/>
      <stop offset="100%" stop-color="transparent"/>
    </radialGradient>
  </defs>
  
  <rect width="512" height="600" fill="url(#bg)"/>
  <ellipse cx="256" cy="245" rx="160" ry="150" fill="url(#roseMist)"/>
  
  <!-- Petals -->
  <path d="M256,105 Q220,140 210,185 Q205,210 225,225 Q240,232 256,228 Q272,232 287,225 Q307,210 302,185 Q292,140 256,105Z" fill="url(#petalGrad)" stroke="#8B7355" stroke-width="0.5" stroke-opacity="0.2"/>
  <path d="M120,240 Q148,205 180,195 Q200,190 215,205 Q225,218 222,240 Q225,262 215,275 Q200,290 180,285 Q148,275 120,240Z" fill="url(#petalGrad)" stroke="#8B7355" stroke-width="0.5" stroke-opacity="0.18" opacity="0.8"/>
  <path d="M392,240 Q364,205 332,195 Q312,190 297,205 Q287,218 290,240 Q287,262 297,275 Q312,290 332,285 Q364,275 392,240Z" fill="url(#petalGrad)" stroke="#8B7355" stroke-width="0.5" stroke-opacity="0.18" opacity="0.8"/>
  <path d="M155,320 Q175,290 200,280 Q218,275 228,288 Q235,300 230,318 Q228,335 215,345 Q195,355 180,345 Q165,335 155,320Z" fill="url(#petalGrad)" stroke="#8B6B6B" stroke-width="0.4" stroke-opacity="0.15" opacity="0.65"/>
  <path d="M357,320 Q337,290 312,280 Q294,275 284,288 Q277,300 282,318 Q284,335 297,345 Q317,355 332,345 Q347,335 357,320Z" fill="url(#petalGrad)" stroke="#8B6B6B" stroke-width="0.4" stroke-opacity="0.15" opacity="0.65"/>
  
  <!-- Eye -->
  <path d="M200,240 Q228,200 256,195 Q284,200 312,240 Q284,278 256,283 Q228,278 200,240Z" fill="none" stroke="url(#moonGold)" stroke-width="1.3" opacity="0.7"/>
  <path d="M215,240 Q235,212 256,208 Q277,212 297,240 Q277,266 256,270 Q235,266 215,240Z" fill="none" stroke="#8B7355" stroke-width="0.7" opacity="0.35"/>
  <ellipse cx="256" cy="240" rx="28" ry="32" fill="none" stroke="#8B6B6B" stroke-width="0.5" opacity="0.3"/>
  <circle cx="256" cy="240" r="8" fill="url(#eyeGem)" opacity="0.8"/>
  <circle cx="256" cy="240" r="4" fill="#2D2424" opacity="0.6"/>
  <circle cx="256" cy="240" r="1.5" fill="#2D2424" opacity="0.8"/>
  
  <!-- Scattered dots -->
  <circle cx="230" cy="145" r="1.2" fill="#2D2424" opacity="0.15"/>
  <circle cx="280" cy="150" r="1" fill="#8B6B6B" opacity="0.12"/>
  <circle cx="160" cy="220" r="0.8" fill="#7B6E8C" opacity="0.1"/>
  <circle cx="350" cy="230" r="1" fill="#8B7355" opacity="0.1"/>
  <circle cx="195" cy="210" r="1" fill="#2D2424" opacity="0.12"/>
  <circle cx="318" cy="215" r="0.8" fill="#2D2424" opacity="0.1"/>
  
  <!-- Text -->
  <text x="256" y="468" text-anchor="middle" font-family="'Noto Serif SC', 'Source Han Serif SC', serif" font-size="38" font-weight="600" fill="#2D2424" letter-spacing="14" opacity="0.9">万相图鉴</text>
  <line x1="175" y1="482" x2="337" y2="482" stroke="#8B7355" stroke-width="0.4" opacity="0.2"/>
  <circle cx="175" cy="482" r="1" fill="#8B6B6B" opacity="0.25"/>
  <circle cx="337" cy="482" r="1" fill="#8B6B6B" opacity="0.25"/>
  <text x="256" y="508" text-anchor="middle" font-family="'Cormorant Garamond', 'Georgia', serif" font-size="12" fill="#8B7355" letter-spacing="8" opacity="0.5">SOUL ATLAS</text>
</svg>
